<svg xmlns="http://www.w3.org/2000/svg">
  <symbol id="bluesky-icon" viewBox="0 0 16 17">
    <g clip-path="url(#bluesky-clip)"><path fill="#08060d" d="M7.75 7.735c-.693-1.348-2.58-3.86-4.334-5.097-1.68-1.187-2.32-.981-2.74-.79C.188 2.065.1 2.812.1 3.251s.241 3.602.398 4.13c.52 1.744 2.22 4.272 4.426 5.352 1.68.837 2.32.631 2.74.44.542-.214.63-.96.63-1.4s-.241-3.602-.398-4.13zm6.37-1.55c0 .44-.088 1.187-.63 1.4-.42.191-1.06.397-2.74-.44-2.207-1.08-3.907-3.608-4.426-5.352-.157-.528-.398-3.69-.398-4.13 0-.44.088-1.187.63-1.4.42-.191 1.06-.397 2.74.44 1.754 1.237 3.641 3.749 4.334 5.097.157.528.49 3.69.49 4.13z"/><path fill="#08060d" d="M14.12 7.735v8.073c0 1.76-.631 2.64-1.892 2.64s-1.892-.88-1.892-2.64V7.735c0-.44.088-1.187.631-1.4.42-.191 1.06-.397 2.74.44.628.495 1.05 1.295 1.05 2.36h0z"/></g>
    <defs><clipPath id="bluesky-clip"><path fill="#fff" d="M.1.85h15.3v15.3H.1z"/></clipPath></defs>
  </symbol>
  <symbol id="discord-icon" viewBox="0 0 20 19">
    <path fill="#08060d" d="M16.224 3.768a14.5 14.5 0 0 0-3.67-1.153c-.158.286-.343.67-.47.976a13.5 13.5 0 0 0-4.067 0c-.128-.306-.317-.69-.476-.976A14.4 14.4 0 0 0 3.868 3.77C1.546 7.28.916 10.703 1.172 14.09c1.487 1.107 2.926 1.778 4.326 2.222a10.9 10.9 0 0 0 .945-1.546 9.4 9.4 0 0 1-1.493-.72c.126-.095.249-.193.368-.295a10.3 10.3 0 0 0 8.878 0c.119.102.242.2.368.295-.476.285-.975.527-1.493.72.235.53.603 1.034.945 1.546 1.4-.444 2.839-1.115 4.326-2.222.318-3.636-.354-6.99-2.513-9.865Zm-9.644 7.894c-.827 0-1.51-.765-1.51-1.705s.668-1.706 1.51-1.706c.842 0 1.51.766 1.51 1.706 0 .94-.668 1.705-1.51 1.705Zm6.265 0c-.826 0-1.51-.765-1.51-1.705s.668-1.706 1.51-1.706c.842 0 1.51.766 1.51 1.706 0 .94-.668 1.705-1.51 1.705Z"/>
  </symbol>
  <symbol id="documentation-icon" viewBox="0 0 21 20">
    <path fill="none" stroke="#aa3bff" stroke-linecap="round" stroke-linejoin="round" stroke-width="1.35" d="m15.5 13.333 1.533 1.322c.645.555.967.833.967 1.178s-.322.623-.967 1.179L15.5 18.333m-3-2.667h1.833c.838 0 1.256 0 1.575-.163a1.5 1.5 0 0 0 .655-.656c.164-.32.164-.737.164-1.575v-9.166c0-.838 0-1.257-.164-1.575a1.5 1.5 0 0 0-.655-.655c-.319-.164-.737-.164-1.575-.164h-9.166c-.838 0-1.257 0-1.575.164a1.5 1.5 0 0 0-.656.655c-.163.318-.163.737-.163 1.575v9.166c0 .838 0 1.256.163 1.575a1.5 1.5 0 0 0 .656.656c.318.163.737.163 1.575.163H12.5"/>
    <path fill="none" stroke="#aa3bff" stroke-linecap="round" stroke-linejoin="round" stroke-width="1.35" d="M17.167 10.836v-4.32c0-1.41 0-2.117-.224-2.68-.359-.906-1.118-1.621-2.08-1.96-.599-.21-1.307-.21-2.68-.21h-4.33c-1.373 0-2.081 0-2.68.21-.962.339-1.721 1.054-2.08 1.96-.224.563-.224 1.27-.224 2.68v4.32c0 1.410 0 2.117.224 2.68.359.906 1.118 1.621 2.08 1.96.599.21 1.307.21 2.68.21h4.33c1.373 0 2.081 0 2.68-.21.962-.339 1.721-1.054 2.08-1.96.224-.563.224-1.27.224-2.68Z"/>
    <path fill="none" stroke="#aa3bff" stroke-linecap="round" stroke-linejoin="round" stroke-width="1.35" d="M3 10a2.78 2.78 0 0 1 2.778-2.778c.555 0 1.209.097 1.748-.047.48-.129.854-.503.982-.982.144-.539.047-1.193.047-1.748A2.78 2.78 0 0 1 11.333 2"/>
  </symbol>
  <symbol id="github-icon" viewBox="0 0 19 19">
    <path fill="#08060d" fill-rule="evenodd" d="M9.356 1.85C5.05 1.85 1.57 5.356 1.57 9.694a7.84 7.84 0 0 0 5.324 7.44c.387.079.528-.168.528-.376 0-.182-.013-.805-.013-1.454-2.165.467-2.616-.935-2.787-1.427-.394-1.022-1.321-1.28-1.048-1.401.528-.27.743.089.987.528.342.623 1.009.517 1.346.388.08-.305.27-.597.527-.77-1.84-.197-3.767-.915-3.767-4.077 0-.902.32-1.641.843-2.219-.083-.204-.365-1.048.083-2.187 0 0 .689-.22 2.255.833.655-.181 1.356-.272 2.052-.275.695.003 1.397.094 2.052.275 1.566-1.053 2.254-.833 2.254-.833.448 1.139.166 1.983.083 2.187.523.578.843 1.317.843 2.219 0 3.174-1.94 3.88-3.788 4.084.298.258.56.77.56 1.556 0 1.12-.01 2.024-.01 2.303 0 .208.14.455.528.376a7.84 7.84 0 0 0 5.324-7.44C17.142 5.356 13.662 1.85 9.356 1.85Z"/>
  </symbol>
  <symbol id="social-icon" viewBox="0 0 20 20">
    <path fill="none" stroke="#aa3bff" stroke-linecap="round" stroke-linejoin="round" stroke-width="1.35" d="M12.5 6.667a4.167 4.167 0 1 0-8.334 0 4.167 4.167 0 0 0 8.334 0"/>
    <path fill="none" stroke="#aa3bff" stroke-linecap="round" stroke-linejoin="round" stroke-width="1.35" d="M2.5 16.667a5.833 5.833 0 0 1 8.75-5.053m3.837.474.513 1.035c.07.144.257.282.414.309l.901.13c.192.027.32.196.284.365-.147.71-.51 1.361-1.02 1.861a.36.36 0 0 0 .089.59l.715.413c.17.098.246.303.166.482a5.822 5.822 0 0 1-3.51 3.04c-.187.073-.393-.003-.45-.197l-.295-.92a.36.36 0 0 0-.35-.253h-1.2a.36.36 0 0 0-.35.253l-.295.92c-.058.194-.263.27-.45.197a5.822 5.822 0 0 1-3.51-3.04c-.08-.179-.005-.384.166-.482l.716-.413a.36.36 0 0 0 .088-.59 5.787 5.787 0 0 1-1.02-1.86c-.036-.17.092-.338.284-.366l.901-.129c.157-.027.344-.165.414-.31l.513-1.035a.36.36 0 0 0 .332-.507.357.357 0 0 0 .1-.122 5.83 5.83 0 0 1 2.08-1.925c.157-.087.374-.033.467.118Z"/>
  </symbol>
  <symbol id="x-icon" viewBox="0 0 19 19">
    <path fill="#08060d" fill-rule="evenodd" d="M1.893 1.98c.052.072 1.245 1.769 2.653 3.77l2.892 4.114c.183.261.333.48.333.486s-.068.089-.152.183l-.522.593-.765.867-3.597 4.087c-.375.426-.734.834-.967 1.18-.164.25-.279.46-.327.627a.83.83 0 0 0 .034.585c.123.226.417.26.72.072l.353-.22c.115-.072 1.376-.87 2.802-1.773 1.426-.902 2.647-1.678 2.714-1.724.067-.046.253.061.534.308.42.365.8.655.962.717a.39.39 0 0 0 .227.007c.092-.027.224-.092.336-.19.213-.188 2.11-2.06 3.42-3.35.756-.744 1.423-1.392 1.556-1.528.371-.368.68-.672.884-.852.34-.306.549-.478.663-.56.2-.139.436-.15.589-.025.112.087.184.255.187.444.003.132-.025.32-.083.54l-.153.585a18.99 18.99 0 0 1-.513 1.515c-.334.863-.83 1.932-1.168 2.57l-.305.547c-.152.273-.31.559-.47.85-.103.186-.21.376-.318.566-.167.292-.34.595-.51.887-.46.804-1.022 1.776-1.278 2.195-.153.248-.283.45-.387.605-.154.232-.235.348-.24.428-.005.11.074.185.298.246.143.04.373.042.608.005.366-.057.865-.249 1.32-.479l.318-.153c.183-.088 1.374-.675 2.647-1.305l2.341-1.151c.245-.12.44-.217.593-.289.236-.111.374-.133.47-.086.128.065.16.232.127.405-.054.292-.193.638-.377 1.006l-.138.268c-.332.643-.778 1.517-1.158 2.237-.236.433-.447.82-.629 1.143-.123.22-.256.46-.386.685-.248.433-.519.907-.797 1.375-.44.727-1.01 1.674-1.415 2.36-.225.386-.41.702-.548.944-.23.408-.31.55-.339.608-.055.107-.086.168-.204.29-.173.176-.463.268-.829.204a2.27 2.27 0 0 1-.64-.188l-.365-.17c-.214-.1-1.291-.613-2.39-1.141-1.1-.528-2.098-1.01-2.208-1.063a.83.83 0 0 0-.412-.046.83.83 0 0 0-.37.16c-.2.16-.41.357-.633.582-.662.668-1.523 1.54-2.15 2.17-.488.488-.902.904-1.177 1.182-.174.174-.328.327-.442.422-.172.146-.374.267-.6.26a.64.64 0 0 1-.404-.147c-.121-.097-.173-.254-.143-.418.053-.286.217-.598.434-.924.098-.15.21-.316.325-.487.248-.374.523-.786.793-1.182.345-.506.703-1.034 1.015-1.482.384-.56.648-.949.809-1.196.103-.16.174-.27.233-.357.155-.233.233-.351.364-.538.192-.27.42-.59.687-.98.437-.633.995-1.44 1.438-2.08l.36-.527c.09-.132.178-.261.263-.386.203-.29.388-.55.546-.76.232-.32.395-.544.544-.707.206-.23.345-.386.478-.503.19-.163.337-.263.537-.341.269-.104.585-.124.878-.06.355.078.678.266.928.496.17.154.342.334.508.518l.175.188c.24.258.597.642.957 1.028.528.568 1.167 1.253 1.685 1.797.359.375.668.695.927.94.163.155.32.30.472.434.267.231.517.445.753.63l.278.22c.184.145.35.276.496.384.347.255.563.415.673.466.15.071.18.04.174-.02-.012-.104-.11-.308-.334-.6l-.19-.283c-.147-.22-.34-.51-.54-.828-.297-.472-.65-1.036-.98-1.555-.226-.36-.44-.7-.634-1.006-.118-.18-.234-.356-.342-.51-.15-.22-.276-.404-.384-.563-.147-.21-.28-.4-.418-.609-.378-.567-.78-1.168-1.1-1.65-.39-.614-.67-1.054-.837-1.306-.142-.21-.21-.314-.254-.371-.054-.076-.09-.128-.213-.245-.172-.164-.46-.255-.814-.192a1.31 1.31 0 0 0-.533.215l-.206.12c-.122.07-1.45.848-2.952 1.727-1.502.878-2.827 1.655-2.948 1.726-.233.136-.48.27-.7.293a.84.84 0 0 1-.544-.108c-.168-.104-.24-.296-.19-.512.035-.15.118-.337.237-.54.179-.311.44-.765.752-1.286.43-.731 1.01-1.719 1.498-2.532.304-.505.581-.965.794-1.306.132-.21.262-.418.374-.588.168-.263.323-.505.485-.766.497-.818 1.11-1.833 1.6-2.648.305-.5.568-.94.766-1.26.126-.204.245-.396.346-.563.169-.292.324-.562.511-.888.32-.567.715-1.268 1.084-1.93.238-.43.44-.798.609-1.1.116-.204.224-.393.318-.544.15-.264.289-.51.455-.804Z"/>
  </symbol>
</svg>